<svg aria-hidden="true" style="position: absolute; width: 0; height: 0; overflow: hidden;" version="1.1"
    xmlns="http://www.w3.org/2000/svg" xmlns:xlink="http://www.w3.org/1999/xlink">
    <defs>
        <symbol id="icon-setting" viewBox="0 0 32 32">
            <path
                d="M16 30.173c-0.893 0-1.8-0.2-2.507-0.613l-7.333-4.227c-2.987-2.013-3.173-2.32-3.173-5.48v-7.707c0-3.16 0.173-3.467 3.107-5.453l7.387-4.267c1.4-0.813 3.6-0.813 5 0l7.36 4.24c2.987 2.013 3.173 2.32 3.173 5.48v7.693c0 3.16-0.173 3.467-3.107 5.453l-7.387 4.267c-0.72 0.413-1.627 0.613-2.52 0.613zM16 3.826c-0.56 0-1.107 0.107-1.493 0.333l-7.333 4.24c-2.173 1.467-2.173 1.467-2.173 3.747v7.693c0 2.28 0 2.28 2.227 3.787l7.28 4.2c0.787 0.453 2.213 0.453 3 0l7.333-4.24c2.16-1.467 2.16-1.467 2.16-3.747v-7.693c0-2.28 0-2.28-2.227-3.787l-7.28-4.2c-0.387-0.227-0.933-0.333-1.493-0.333z">
            </path>
            <path
                d="M16 21c-2.76 0-5-2.24-5-5s2.24-5 5-5c2.76 0 5 2.24 5 5s-2.24 5-5 5zM16 13c-1.653 0-3 1.347-3 3s1.347 3 3 3c1.653 0 3-1.347 3-3s-1.347-3-3-3z">
            </path>
        </symbol>
        <symbol id="icon-d-square" viewBox="0 0 32 32">
            <path fill="none" stroke-linejoin="miter" stroke-linecap="butt" stroke-miterlimit="4" stroke-width="1.3333"
                d="M20 29.667h-8c-3.543 0-5.913-0.76-7.41-2.256s-2.256-3.867-2.256-7.41v-8c0-3.543 0.76-5.913 2.256-7.41s3.867-2.256 7.41-2.256h8c3.543 0 5.913 0.76 7.41 2.256s2.256 3.867 2.256 7.41v8c0 3.543-0.76 5.913-2.256 7.41s-3.867 2.256-7.41 2.256zM12 3c-3.12 0-5.434 0.548-6.943 2.057s-2.057 3.823-2.057 6.943v8c0 3.12 0.548 5.434 2.057 6.943s3.823 2.057 6.943 2.057h8c3.12 0 5.434-0.548 6.943-2.057s2.057-3.823 2.057-6.943v-8c0-3.12-0.548-5.434-2.057-6.943s-3.823-2.057-6.943-2.057h-8z">
            </path>
            <path fill="none" stroke-linejoin="miter" stroke-linecap="butt" stroke-miterlimit="4" stroke-width="1.3333"
                d="M15.83 16.73l-0.003-0.001-7.064-4.079c-0-0-0.001-0-0.001-0.001-0.166-0.097-0.208-0.3-0.123-0.441l0 0 0.004-0.007c0.097-0.166 0.3-0.209 0.441-0.124l-0 0 6.903 3.999 6.856-3.968c0.158-0.092 0.361-0.032 0.445 0.115 0.090 0.158 0.024 0.373-0.112 0.45l-7.007 4.050c-0.066 0.035-0.128 0.049-0.168 0.049-0.069 0-0.124-0.015-0.171-0.043z">
            </path>
            <path fill="none" stroke-linejoin="miter" stroke-linecap="butt" stroke-miterlimit="4" stroke-width="1.3333"
                d="M16 24.027c-0.179 0-0.333-0.155-0.333-0.333v-7.253c0-0.178 0.155-0.333 0.333-0.333s0.333 0.155 0.333 0.333v7.253c0 0.179-0.155 0.333-0.333 0.333z">
            </path>
            <path fill="none" stroke-linejoin="miter" stroke-linecap="butt" stroke-miterlimit="4" stroke-width="1.3333"
                d="M9.911 21.537l-0.002-0.001c-0.514-0.283-1-0.787-1.36-1.401s-0.562-1.289-0.562-1.882v-4.52c0-0.583 0.204-1.254 0.566-1.871 0.362-0.615 0.85-1.124 1.36-1.415l4.263-2.371c0-0 0-0 0.001-0 1.025-0.568 2.62-0.568 3.646 0 0 0 0 0 0 0l4.268 2.374c0.514 0.284 1.001 0.787 1.36 1.401s0.562 1.289 0.562 1.882v4.52c0 0.583-0.204 1.254-0.567 1.871-0.362 0.615-0.85 1.124-1.361 1.415l-4.268 2.374c-0.489 0.277-1.129 0.42-1.819 0.42-0.679 0-1.325-0.153-1.825-0.424l-4.264-2.372zM16 8.333c-0.502 0-1.055 0.088-1.499 0.338l-4.262 2.371c-0 0-0.001 0-0.001 0.001-0.466 0.257-0.852 0.707-1.117 1.16s-0.466 1.007-0.466 1.53v4.52c0 0.529 0.2 1.082 0.467 1.536s0.653 0.898 1.117 1.153c0 0 0.001 0.001 0.001 0.001l4.26 2.37c0.001 0 0.001 0.001 0.002 0.001 0.439 0.247 0.996 0.345 1.499 0.345s1.060-0.098 1.499-0.345c0.001-0 0.001-0.001 0.002-0.001l4.26-2.37c0.001-0 0.001-0.001 0.001-0.001 0.466-0.257 0.852-0.707 1.117-1.159s0.466-1.007 0.466-1.53v-4.52c0-0.529-0.2-1.082-0.467-1.536s-0.653-0.898-1.117-1.154c-0.001-0-0.001-0-0.001-0.001l-4.26-2.37c-0.001-0-0.001-0.001-0.002-0.001-0.444-0.25-0.997-0.338-1.499-0.338z">
            </path>
        </symbol>
        <symbol id="icon-discount-shape" viewBox="0 0 32 32">
            <path fill="none" stroke-linejoin="miter" stroke-linecap="butt" stroke-miterlimit="4" stroke-width="1.3333"
                d="M14.263 28.948v0l-2.032-2.032c-0.173-0.173-0.416-0.297-0.597-0.371-0.179-0.074-0.436-0.157-0.675-0.157h-2.88c-1.365 0-2.467-1.102-2.467-2.467v-2.88c0-0.238-0.083-0.495-0.157-0.675-0.074-0.18-0.198-0.424-0.371-0.597l-2.027-2.027c-0.464-0.464-0.725-1.082-0.725-1.742 0-0.667 0.252-1.28 0.719-1.737h0l0.005-0.005 2.027-2.027c0 0 0 0 0 0 0.173-0.173 0.297-0.416 0.371-0.597 0.074-0.179 0.157-0.436 0.157-0.675v-2.88c0-1.365 1.102-2.467 2.467-2.467h2.88c0.238 0 0.495-0.083 0.675-0.157 0.18-0.075 0.424-0.198 0.597-0.371l2.027-2.027c0.913-0.913 2.571-0.913 3.484 0l2.027 2.027c0.173 0.173 0.417 0.297 0.597 0.371 0.179 0.074 0.436 0.157 0.675 0.157h2.88c1.365 0 2.467 1.102 2.467 2.467v2.88c0 0.238 0.083 0.495 0.157 0.675 0.075 0.18 0.198 0.424 0.371 0.597l2.027 2.027c0.464 0.464 0.725 1.082 0.725 1.742 0 0.667-0.252 1.28-0.719 1.737v0l-2.032 2.032c-0.173 0.173-0.297 0.416-0.371 0.597-0.074 0.179-0.157 0.436-0.157 0.675v2.88c0 1.365-1.102 2.467-2.467 2.467h-2.88c-0.238 0-0.495 0.083-0.675 0.157-0.18 0.075-0.424 0.198-0.597 0.371l-2.032 2.032c-0.457 0.467-1.070 0.719-1.737 0.719s-1.28-0.252-1.737-0.719zM26.445 12.702v0c-0.409-0.409-0.725-1.173-0.725-1.742v-2.88c0-0.995-0.805-1.8-1.8-1.8h-2.88c-0.569 0-1.333-0.316-1.742-0.725l-2.027-2.027c-0.687-0.687-1.856-0.687-2.543 0v0l-2.027 2.027c-0.409 0.409-1.173 0.725-1.742 0.725h-2.88c-0.995 0-1.8 0.805-1.8 1.8v2.88c0 0.569-0.316 1.333-0.725 1.742l-2.027 2.027c-0.335 0.335-0.529 0.783-0.529 1.271s0.193 0.936 0.529 1.271l2.027 2.027c0.409 0.409 0.725 1.173 0.725 1.742v2.88c0 0.995 0.805 1.8 1.8 1.8h2.88c0.569 0 1.333 0.316 1.742 0.725v0l2.027 2.027c0.687 0.687 1.856 0.687 2.543 0l2.027-2.027c0.409-0.409 1.173-0.725 1.742-0.725h2.88c0.995 0 1.8-0.805 1.8-1.8v-2.88c0-0.569 0.316-1.333 0.725-1.742l2.027-2.027c0.335-0.335 0.529-0.783 0.529-1.271s-0.193-0.936-0.529-1.271l-2.027-2.027z">
            </path>
            <path fill="none" stroke-linejoin="miter" stroke-linecap="butt" stroke-miterlimit="4" stroke-width="1.3333"
                d="M20 20.667c-0.383 0-0.68-0.306-0.68-0.667 0-0.365 0.301-0.667 0.667-0.667s0.667 0.301 0.667 0.667c0 0.374-0.297 0.667-0.653 0.667z">
            </path>
            <path fill="none" stroke-linejoin="miter" stroke-linecap="butt" stroke-miterlimit="4" stroke-width="1.3333"
                d="M12.013 12.667c-0.383 0-0.68-0.306-0.68-0.667 0-0.365 0.302-0.667 0.667-0.667s0.667 0.302 0.667 0.667c0 0.374-0.297 0.667-0.653 0.667z">
            </path>
            <path fill="none" stroke-linejoin="miter" stroke-linecap="butt" stroke-miterlimit="4" stroke-width="1.3333"
                d="M12.235 20.235v0c-0.068 0.068-0.149 0.098-0.235 0.098s-0.167-0.030-0.235-0.098c-0.126-0.126-0.126-0.344 0-0.471l8-8c0.126-0.126 0.344-0.126 0.471 0s0.126 0.344 0 0.471l-8 8z">
            </path>
        </symbol>
        <symbol id="icon-key-square" viewBox="0 0 32 32">
            <path fill="none" stroke-linejoin="round" stroke-linecap="round" stroke-miterlimit="4" stroke-width="2"
                d="M12 29.333h8c6.667 0 9.333-2.667 9.333-9.333v-8c0-6.667-2.667-9.333-9.333-9.333h-8c-6.667 0-9.333 2.667-9.333 9.333v8c0 6.667 2.667 9.333 9.333 9.333z">
            </path>
            <path fill="none" stroke-linejoin="round" stroke-linecap="round" stroke-miterlimit="10" stroke-width="2"
                d="M21.707 18.147c-1.507 1.507-3.667 1.973-5.573 1.373l-3.453 3.44c-0.24 0.253-0.733 0.413-1.093 0.36l-1.6-0.213c-0.533-0.067-1.013-0.573-1.093-1.093l-0.213-1.6c-0.053-0.347 0.12-0.84 0.36-1.093l3.44-3.44c-0.587-1.907-0.133-4.067 1.373-5.573 2.16-2.16 5.68-2.16 7.853 0 2.16 2.147 2.16 5.667 0 7.84z">
            </path>
            <path fill="none" stroke-linejoin="round" stroke-linecap="round" stroke-miterlimit="10" stroke-width="2"
                d="M13.933 21.707l-1.133-1.147"></path>
            <path fill="none" stroke-linejoin="round" stroke-linecap="round" stroke-miterlimit="4" stroke-width="2.6667"
                d="M17.859 14.267h0.012"></path>
        </symbol>
        <symbol id="icon-message-question" viewBox="0 0 32 32">
            <path fill="none" stroke-linejoin="miter" stroke-linecap="butt" stroke-miterlimit="4" stroke-width="1.3333"
                d="M9.876 28.893l-0.006-0.003c-0.534-0.281-0.87-0.85-0.87-1.463v-2.495l-0.599-0.061c-1.863-0.191-3.369-0.965-4.411-2.149s-1.657-2.822-1.657-4.801v-8c0-2.141 0.716-3.88 1.918-5.082s2.941-1.918 5.082-1.918h13.333c2.141 0 3.88 0.716 5.082 1.918s1.918 2.941 1.918 5.082v8c0 2.141-0.716 3.88-1.918 5.082s-2.941 1.918-5.082 1.918h-5.229l-5.844 3.896c-0.001 0-0.001 0.001-0.002 0.001-0.277 0.181-0.602 0.276-0.926 0.276-0.265 0-0.543-0.067-0.791-0.2zM10.164 28.278l0 0c0.218 0.131 0.631 0.243 1.048-0.023l0 0 5.945-3.955c0.060-0.040 0.133-0.061 0.19-0.061h5.333c1.867 0 3.463-0.607 4.595-1.739s1.739-2.728 1.739-4.595v-8c0-1.867-0.607-3.463-1.739-4.595s-2.728-1.739-4.595-1.739h-13.347c-1.867 0-3.463 0.607-4.595 1.739s-1.739 2.728-1.739 4.595v8c0 1.867 0.607 3.463 1.739 4.595s2.728 1.739 4.595 1.739c0.178 0 0.333 0.155 0.333 0.333v2.84c0 0.523 0.354 0.779 0.497 0.865z">
            </path>
            <path fill="none" stroke-linejoin="miter" stroke-linecap="butt" stroke-miterlimit="4" stroke-width="1.3333"
                d="M16 15.48c-0.179 0-0.333-0.155-0.333-0.333v-0.28c0-1.169 0.836-1.752 1.269-2.049 0.264-0.179 0.506-0.372 0.678-0.61 0.192-0.268 0.267-0.552 0.267-0.847 0-1.035-0.845-1.88-1.88-1.88s-1.88 0.845-1.88 1.88c0 0.178-0.155 0.333-0.333 0.333s-0.333-0.155-0.333-0.333c0-1.405 1.142-2.547 2.547-2.547s2.547 1.142 2.547 2.547c0 1.143-0.826 1.727-1.239 2.007-0.276 0.184-0.528 0.381-0.705 0.629-0.2 0.279-0.27 0.571-0.27 0.871v0.28c0 0.186-0.149 0.333-0.333 0.333z">
            </path>
            <path fill="none" stroke-linejoin="miter" stroke-linecap="butt" stroke-miterlimit="4" stroke-width="1.3333"
                d="M16 18.8c-0.186 0-0.333-0.149-0.333-0.333 0-0.179 0.155-0.333 0.333-0.333s0.333 0.155 0.333 0.333c0 0.184-0.147 0.333-0.333 0.333z">
            </path>
        </symbol>
        <symbol id="icon-search" viewBox="0 0 32 32">
            <path fill="none" stroke="#7e7e7e" style="stroke: var(--color2, #7e7e7e)" stroke-linejoin="round"
                stroke-linecap="round" stroke-miterlimit="4" stroke-width="2.6667"
                d="M14.667 25.333c5.891 0 10.667-4.776 10.667-10.667s-4.776-10.667-10.667-10.667c-5.891 0-10.667 4.776-10.667 10.667s4.776 10.667 10.667 10.667z">
            </path>
            <path fill="none" stroke="#7e7e7e" style="stroke: var(--color2, #7e7e7e)" stroke-linejoin="round"
                stroke-linecap="round" stroke-miterlimit="4" stroke-width="2.6667" d="M28 28l-5.8-5.8"></path>
        </symbol>
        <symbol id="icon-user-square" viewBox="0 0 32 32">
            <path fill="none" stroke-linejoin="miter" stroke-linecap="butt" stroke-miterlimit="4" stroke-width="1.3333"
                d="M7.726 29.148v0l-0.004-0.001c-0.14-0.041-0.249-0.186-0.243-0.356 0.303-3.54 3.953-6.498 8.521-6.498 4.571 0 8.213 2.95 8.522 6.51 0.013 0.162-0.079 0.297-0.239 0.343v0l-0.009 0.003c-1.158 0.349-2.555 0.518-4.275 0.518h-8c-1.72 0-3.117-0.17-4.274-0.518zM8.318 27.902l-0.191 0.693 0.705 0.139c0.934 0.184 1.98 0.266 3.169 0.266h8c1.189 0 2.234-0.082 3.169-0.266l0.705-0.139-0.191-0.693c-0.81-2.934-4.068-4.943-7.683-4.943s-6.873 2.009-7.683 4.943z">
            </path>
            <path fill="none" stroke-linejoin="round" stroke-linecap="round" stroke-miterlimit="4" stroke-width="2"
                d="M20 2.667h-8c-6.667 0-9.333 2.667-9.333 9.333v8c0 5.040 1.52 7.8 5.147 8.827 0.293-3.467 3.853-6.2 8.187-6.2s7.893 2.733 8.187 6.2c3.627-1.027 5.147-3.787 5.147-8.827v-8c0-6.667-2.667-9.333-9.333-9.333zM16 18.893c-2.64 0-4.773-2.147-4.773-4.787s2.133-4.773 4.773-4.773c2.64 0 4.773 2.133 4.773 4.773s-2.133 4.787-4.773 4.787z">
            </path>
            <path fill="none" stroke-linejoin="miter" stroke-linecap="butt" stroke-miterlimit="4" stroke-width="1.3333"
                d="M16 19.227c-2.816 0-5.107-2.299-5.107-5.12 0-2.818 2.288-5.107 5.107-5.107s5.107 2.288 5.107 5.107c0 2.821-2.29 5.12-5.107 5.12zM16 9.667c-2.448 0-4.44 1.992-4.44 4.44 0 2.46 1.99 4.453 4.44 4.453s4.44-1.993 4.44-4.453c0-2.448-1.992-4.44-4.44-4.44z">
            </path>
        </symbol>
        <symbol id="icon-wallet-money" viewBox="0 0 32 32">
            <path fill="none" stroke-linejoin="round" stroke-linecap="round" stroke-miterlimit="4" stroke-width="2"
                d="M14.335 22.481v2.707c0 2.293-2.133 4.147-4.76 4.147s-4.773-1.853-4.773-4.147v-2.707c0 2.293 2.133 3.92 4.773 3.92 2.627 0 4.76-1.64 4.76-3.92z">
            </path>
            <path fill="none" stroke-linejoin="round" stroke-linecap="round" stroke-miterlimit="4" stroke-width="2"
                d="M14.333 18.813c0 0.667-0.187 1.28-0.507 1.813-0.787 1.293-2.4 2.107-4.267 2.107s-3.48-0.827-4.267-2.107c-0.32-0.533-0.507-1.147-0.507-1.813 0-1.147 0.533-2.173 1.387-2.92 0.867-0.76 2.053-1.213 3.373-1.213s2.507 0.467 3.373 1.213c0.88 0.733 1.413 1.773 1.413 2.92z">
            </path>
            <path fill="none" stroke-linejoin="round" stroke-linecap="round" stroke-miterlimit="4" stroke-width="2"
                d="M14.335 18.813v3.667c0 2.293-2.133 3.92-4.76 3.92s-4.773-1.64-4.773-3.92v-3.667c0-2.293 2.133-4.147 4.773-4.147 1.32 0 2.507 0.467 3.373 1.213 0.853 0.747 1.387 1.787 1.387 2.933z">
            </path>
            <path fill="none" stroke-linejoin="round" stroke-linecap="round" stroke-miterlimit="4" stroke-width="2"
                d="M29.333 14.627v2.747c0 0.733-0.587 1.333-1.333 1.36h-2.613c-1.44 0-2.76-1.053-2.88-2.493-0.080-0.84 0.24-1.627 0.8-2.173 0.493-0.507 1.173-0.8 1.92-0.8h2.773c0.747 0.027 1.333 0.627 1.333 1.36z">
            </path>
            <path fill="none" stroke-linejoin="round" stroke-linecap="round" stroke-miterlimit="4" stroke-width="2"
                d="M2.667 14v-2.667c0-3.627 2.187-6.16 5.587-6.587 0.347-0.053 0.707-0.080 1.080-0.080h12c0.347 0 0.68 0.013 1 0.067 3.44 0.4 5.667 2.947 5.667 6.6v1.933h-2.773c-0.747 0-1.427 0.293-1.92 0.8-0.56 0.547-0.88 1.333-0.8 2.173 0.12 1.44 1.44 2.493 2.88 2.493h2.613v1.933c0 4-2.667 6.667-6.667 6.667h-3.333">
            </path>
        </symbol>
        <symbol id="icon-right" viewBox="0 0 32 32">
            <path fill="none" stroke-linejoin="round" stroke-linecap="round" stroke-miterlimit="4" stroke-width="4"
                d="M12 24l8-8-8-8"></path>
        </symbol>
    </defs>
</svg>